#!OML:ASF I:\Actors\actors\Patient Classification 1\Patient 1\Session 1\Subject1.ASF
:FULLY-SPECIFIED
:DEGREES
610
root 0.0691564 17.5785 8.36756 9.74273 0.113714 -6.64703
lowerback 3.42242 -2.02828 8.36215
upperback -0.498645 -2.22218 5.06221
thorax -2.56174 -1.18894 0.694078
lowerneck 10.818 -14.6882 -13.6005
upperneck -4.71044 -20.6077 21.2771
head 0.588644 -10.9347 8.55577
rclavicle -3.97569e-016 -2.22639e-014
rhumerus -10.9654 54.6245 -47.6901
rradius 140.451
rwrist -38.2091
rhand 64.0907 -47.8604
rfingers 7.12502
rthumb 74.9658 -0.417889
lclavicle -3.97569e-016 -2.22639e-014
lhumerus -33.9361 -49.2648 75.1911
lradius 142.054
lwrist 24.3906
lhand 2.74528 -36.8937
lfingers 7.12502
lthumb 28.2171 -8.99797
rfemur -7.55038 22.0847 22.1087
rtibia 8.18762
rfoot -13.8212 -24.9403
rtoes -1.69855
lfemur -3.22562 -28.5983 -8.90818
ltibia 0.56184
lfoot -10.8438 37.4237
ltoes -5.72731
611
root 0.0717303 17.5786 8.36397 9.70718 -0.0448563 -6.71092
lowerback 3.37567 -2.0252 8.35439
upperback -0.476975 -2.22685 5.05154
thorax -2.51305 -1.18968 0.684969
lowerneck 10.535 -14.7805 -13.9528
upperneck -3.67838 -20.9014 21.5383
head 1.05071 -11.0468 8.5763
rclavicle -4.57205e-015 5.08889e-014
rhumerus -11.4882 56.84 -47.5427
rradius 140.232
rwrist -39.1647
rhand 62.9549 -47.2598
rfingers 7.12502
rthumb 74.9723 -4.04814
lclavicle -4.57205e-015 5.08889e-014
lhumerus -34.9357 -49.5148 75.8239
lradius 142.069
lwrist 24.4348
lhand 2.87747 -36.9087
lfingers 7.12502
lthumb 28.3435 -9.03393
rfemur -7.54441 22.1064 22.1696
rtibia 8.21045
rfoot -13.8264 -24.7775
rtoes -1.61588
lfemur -3.12982 -28.5171 -8.89758
ltibia 0.572215
lfoot -10.8758 37.454
ltoes -5.75697
612
root 0.075195 17.5798 8.3586 9.67427 -0.265363 -6.7614
lowerback 3.32736 -2.02957 8.30665
upperback -0.413757 -2.24698 5.0491
thorax -2.41896 -1.19564 0.705893
lowerneck 10.2063 -14.8857 -14.1935
upperneck -2.67307 -21.1924 21.6493
head 1.48414 -11.1502 8.53608
rclavicle -2.06736e-014 3.57812e-014
rhumerus -11.0369 59.1267 -46.2996
rradius 140.164
rwrist -39.5713
rhand 61.3119 -46.0829
rfingers 7.12502
rthumb 74.8339 -8.94359
lclavicle -2.06736e-014 3.57812e-014
lhumerus -35.9786 -49.776 76.1888
lradius 142.132
lwrist 24.5993
lhand 2.94706 -37.0604
lfingers 7.12502
lthumb 28.41 -9.19673
rfemur -7.61907 22.1092 22.1986
rtibia 8.31967
rfoot -13.7583 -24.5808
rtoes -1.90504
lfemur -3.04761 -28.384 -8.89854
ltibia 0.582784
lfoot -10.9508 37.5002
ltoes -5.56457
613
root 0.079963 17.5818 8.35128 9.65508 -0.485473 -6.76275
lowerback 3.28471 -2.03532 8.25178
upperback -0.340447 -2.26993 5.01546
thorax -2.31866 -1.20276 0.69842
lowerneck 9.8832 -14.9947 -14.3927
upperneck -1.78417 -21.4726 21.7963
head 1.88267 -11.2513 8.50871
rclavicle 1.78906e-015 1.19271e-014
rhumerus -10.6501 61.0628 -45.0088
rradius 140.302
rwrist -39.2109
rhand 59.8958 -44.8619
rfingers 7.12502
rthumb 74.5778 -12.8177
lclavicle 1.78906e-015 1.19271e-014
lhumerus -36.9951 -50.1778 76.2117
lradius 142.299
lwrist 24.8905
lhand 2.98057 -37.064
lfingers 7.12502
lthumb 28.442 -9.2057
rfemur -7.7547 22.0486 22.1533
rtibia 8.48221
rfoot -13.6264 -24.3733
rtoes -2.41863
lfemur -3.04055 -28.1668 -8.93639
ltibia 0.659689
lfoot -10.9867 37.4729
ltoes -5.54826
614
root 0.0840145 17.5847 8.34423 9.64365 -0.69444 -6.80354
lowerback 3.26532 -2.03313 8.2432
upperback -0.273419 -2.27635 5.00438
thorax -2.23823 -1.20272 0.68918
lowerneck 9.81926 -14.9936 -14.6304
upperneck -1.1837 -21.5981 22.1284
head 2.15541 -11.3009 8.59737
rclavicle 9.93923e-016 -3.18055e-014
rhumerus -11.2663 62.5424 -44.6635
rradius 140.573
rwrist -38.2246
rhand 59.2194 -43.972
rfingers 7.12502
rthumb 74.4125 -14.2923
lclavicle 9.93923e-016 -3.18055e-014
lhumerus -38.219 -50.5993 76.2611
lradius 142.548
lwrist 25.2219
lhand 3.14296 -37.0195
lfingers 7.12502
lthumb 28.5972 -9.1872
rfemur -7.90758 22.0096 22.1496
rtibia 8.68474
rfoot -13.5732 -24.1432
rtoes -2.58194
lfemur -3.0959 -27.8056 -8.8969
ltibia 0.7996
lfoot -10.9772 37.3195
ltoes -5.79825
615
root 0.0872498 17.5892 8.33705 9.62559 -0.864912 -6.92043
lowerback 3.26355 -2.04728 8.31874
upperback -0.181454 -2.30012 5.04377
thorax -2.14405 -1.2111 0.687284
lowerneck 9.73492 -14.9027 -14.7454
upperneck -0.58229 -21.5791 22.3046
head 2.37255 -11.2735 8.64039
rclavicle 1.45113e-014 -2.78299e-014
rhumerus -12.9852 63.23 -45.4087
rradius 140.954
rwrist -37.4082
rhand 59.3176 -44.1544
rfingers 7.12502
rthumb 74.4382 -14.1347
lclavicle 1.45113e-014 -2.78299e-014
lhumerus -39.7408 -50.5659 76.6345
lradius 142.773
lwrist 25.4666
lhand 3.79406 -37.1597
lfingers 7.12502
lthumb 29.2191 -9.43387
rfemur -8.0408 22.0142 22.2471
rtibia 8.88545
rfoot -13.5987 -23.9549
rtoes -2.60038
lfemur -3.14175 -27.441 -8.74967
ltibia 0.898067
lfoot -10.9649 37.1337
ltoes -5.92234
616
root 0.0901684 17.5961 8.33007 9.6313 -0.957521 -7.00812
lowerback 3.21669 -2.09886 8.3806
upperback -0.0617129 -2.38219 5.10178
thorax -1.99713 -1.24622 0.712869
lowerneck 9.18668 -14.9512 -14.6578
upperneck 0.276745 -21.7086 22.1146
head 2.70177 -11.2771 8.47497
rclavicle 3.37934e-015 -5.80451e-014
rhumerus -14.8818 62.7627 -46.3502
rradius 141.503
rwrist -37.6627
rhand 59.8904 -45.4318
rfingers 7.12502
rthumb 74.5765 -13.4068
lclavicle 3.37934e-015 -5.80451e-014
lhumerus -41.8378 -49.6682 77.5971
lradius 143.114
lwrist 25.3414
lhand 4.9421 -37.2563
lfingers 7.12502
lthumb 30.3147 -9.7265
rfemur -8.16524 22.0081 22.3103
rtibia 9.03386
rfoot -13.6347 -23.8509
rtoes -2.55261
lfemur -3.24749 -27.0949 -8.60373
ltibia 1.00805
lfoot -10.9318 36.913
ltoes -6.04331
617
root 0.0911111 17.6066 8.32597 9.6695 -1.01083 -7.03843
lowerback 3.16235 -2.14161 8.38695
upperback 0.0484146 -2.45547 5.12594
thorax -1.85467 -1.27685 0.733005
lowerneck 8.62 -15.0191 -14.6134
upperneck 0.935997 -21.8535 22.149
head 3.01218 -11.2958 8.38715
rclavicle -3.20043e-014 -2.14687e-014
rhumerus -16.6007 61.1632 -47.2362
rradius 142.087
rwrist -38.7979
rhand 60.4179 -46.9619
rfingers 7.12502
rthumb 74.6866 -13.0597
lclavicle -3.20043e-014 -2.14687e-014
lhumerus -44.3739 -47.8886 79.03
lradius 143.666
lwrist 24.7446
lhand 6.55284 -37.357
lfingers 7.12502
lthumb 31.85 -10.121
rfemur -8.28089 21.9892 22.3108
rtibia 9.11631
rfoot -13.6117 -23.7923
rtoes -2.41842
lfemur -3.43332 -26.6882 -8.4948
ltibia 1.1877
lfoot -10.9863 36.6181
ltoes -6.11232
618
root 0.0889748 17.6211 8.32617 9.71724 -1.02855 -7.08225
lowerback 3.2115 -2.15935 8.33139
upperback 0.104993 -2.47975 5.15467
thorax -1.82094 -1.28653 0.794909
lowerneck 8.35466 -15.0016 -14.6389
upperneck 1.23947 -21.8813 22.4785
head 3.19239 -11.2883 8.45413
rclavicle -1.45113e-014 1.59028e-014
rhumerus -18.7292 57.7769 -49.3327
rradius 142.585
rwrist -40.0477
rhand 61.6517 -50.442
rfingers 7.12502
rthumb 74.8767 -12.0573
lclavicle -1.45113e-014 1.59028e-014
lhumerus -46.5785 -45.2488 80.6605
lradius 144.242
lwrist 23.5313
lhand 8.75708 -37.6311
lfingers 7.12502
lthumb 33.9465 -10.8355
rfemur -8.36648 22.0075 22.3507
rtibia 9.15537
rfoot -13.5835 -23.7859
rtoes -2.20092
lfemur -3.61627 -26.2919 -8.35309
ltibia 1.34205
lfoot -10.9782 36.282
ltoes -6.20138
619
root 0.0855066 17.6358 8.33323 9.77921 -0.940246 -7.09925
lowerback 3.33434 -2.23395 8.11986
upperback 0.105968 -2.57033 5.25854
thorax -1.87923 -1.33126 1.02882
lowerneck 7.91848 -15.0759 -14.7153
upperneck 1.64963 -22.0379 22.6856
head 3.44828 -11.3275 8.45435
rclavicle 1.59028e-014 -2.70347e-014
rhumerus -20.906 53.2279 -52.424
rradius 143.265
rwrist -39.3877
rhand 62.6303 -54.0336
rfingers 7.12502
rthumb 74.9587 -12.0296
lclavicle 1.59028e-014 -2.70347e-014
lhumerus -48.0898 -41.6665 82.5619
lradius 144.759
lwrist 21.6052
lhand 11.3345 -38.0561
lfingers 7.12502
lthumb 36.391 -11.8366
rfemur -8.40903 21.9337 22.375
rtibia 9.14984
rfoot -13.5666 -23.7921
rtoes -2.10448
lfemur -3.76798 -26.1262 -8.23586
ltibia 1.38075
lfoot -10.7418 36.0681
ltoes -6.61987
